<?xml version="1.0" encoding="UTF-8" standalone="no"?>
<svg
   xmlns:dc="http://purl.org/dc/elements/1.1/"
   xmlns:cc="http://creativecommons.org/ns#"
   xmlns:rdf="http://www.w3.org/1999/02/22-rdf-syntax-ns#"
   xmlns:svg="http://www.w3.org/2000/svg"
   xmlns="http://www.w3.org/2000/svg"
   xmlns:sodipodi="http://sodipodi.sourceforge.net/DTD/sodipodi-0.dtd"
   xmlns:inkscape="http://www.inkscape.org/namespaces/inkscape"
   version="1.1"
   id="svg2"
   xml:space="preserve"
   width="139.39999"
   height="132.60001"
   viewBox="0 0 139.39999 132.60001"
   sodipodi:docname="vectorstock_33649960.eps"><metadata
     id="metadata8"><rdf:RDF><cc:Work
         rdf:about=""><dc:format>image/svg+xml</dc:format><dc:type
           rdf:resource="http://purl.org/dc/dcmitype/StillImage" /></cc:Work></rdf:RDF></metadata><defs
     id="defs6" /><sodipodi:namedview
     pagecolor="#ffffff"
     bordercolor="#666666"
     borderopacity="1"
     objecttolerance="10"
     gridtolerance="10"
     guidetolerance="10"
     inkscape:pageopacity="0"
     inkscape:pageshadow="2"
     inkscape:window-width="640"
     inkscape:window-height="480"
     id="namedview4" /><g
     id="g10"
     inkscape:groupmode="layer"
     inkscape:label="ink_ext_XXXXXX"
     transform="matrix(1.3333333,0,0,-1.3333333,0,132.6)"><g
       id="g12"
       transform="scale(0.1)"><path
         d="M 389.297,637.121 522.754,453.457 97.1602,591.754 Z"
         style="fill:#facc08;fill-opacity:1;fill-rule:nonzero;stroke:none"
         id="path14" /><path
         d="M 522.754,453.457 259.758,91.3984 306.809,383.262 Z"
         style="fill:#facc08;fill-opacity:1;fill-rule:nonzero;stroke:none"
         id="path16" /><path
         d="m 522.754,453.457 263,-362.0586 -263,135.0076 z"
         style="fill:#facc08;fill-opacity:1;fill-rule:nonzero;stroke:none"
         id="path18" /><path
         d="M 948.352,591.754 738.691,383.262 522.754,453.457 Z"
         style="fill:#facc08;fill-opacity:1;fill-rule:nonzero;stroke:none"
         id="path20" /><path
         d="M 948.352,591.754 522.754,453.457 656.211,637.121 Z"
         style="fill:#f89c16;fill-opacity:1;fill-rule:nonzero;stroke:none"
         id="path22" /><path
         d="m 738.691,383.262 47.063,-291.8636 -263,362.0586 z"
         style="fill:#f89c16;fill-opacity:1;fill-rule:nonzero;stroke:none"
         id="path24" /><path
         d="M 522.754,453.457 V 226.406 L 259.758,91.3984 Z"
         style="fill:#f89c16;fill-opacity:1;fill-rule:nonzero;stroke:none"
         id="path26" /><path
         d="M 522.754,453.457 306.809,383.262 97.1602,591.754 Z"
         style="fill:#f89c16;fill-opacity:1;fill-rule:nonzero;stroke:none"
         id="path28" /><path
         d="M 522.754,901.02 V 453.457 L 389.297,637.121 Z"
         style="fill:#f89c16;fill-opacity:1;fill-rule:nonzero;stroke:none"
         id="path30" /><path
         d="M 522.754,901.02 656.211,637.121 522.754,453.457 Z"
         style="fill:#facc08;fill-opacity:1;fill-rule:nonzero;stroke:none"
         id="path32" /><path
         d="M 522.695,177.078 832.754,17.9219 777.344,362.051 1024.43,607.73 680.078,661.254 522.695,972.375 365.43,661.254 21.0664,607.73 268.164,362.051 212.754,17.9219 Z M 199.734,0 257.48,358.574 0,614.574 358.82,670.348 522.695,994.531 686.68,670.348 1045.51,614.574 788.027,358.574 845.762,0 522.695,165.828 199.734,0"
         style="fill:#facc08;fill-opacity:1;fill-rule:nonzero;stroke:none"
         id="path34" /></g></g></svg>
